<?xml version="1.0" encoding="UTF-8"?>
<svg width="328px" height="79px" viewBox="0 0 328 79" version="1.1" xmlns="http://www.w3.org/2000/svg" xmlns:xlink="http://www.w3.org/1999/xlink">
    <!-- Generator: Sketch 61.2 (89653) - https://sketch.com -->
    <title>LOGO</title>
    <desc>Created with Sketch.</desc>
    <defs>
        <polygon id="path-1" points="6.15e-05 0.119611275 82 0.119611275 82 70.3238095 6.15e-05 70.3238095"></polygon>
    </defs>
    <g id="Symbols" stroke="none" stroke-width="1" fill="none" fill-rule="evenodd">
        <g id="Nav" transform="translate(-42.000000, -7.000000)">
            <g id="LOGO" transform="translate(42.000000, 7.000000)">
                <text id="NATURAL" fill="#E4808D" font-family="BellGothicStd-Black, Bell Gothic Std" font-size="50" font-weight="700">
                    <tspan x="97" y="57">NATURAL</tspan>
                </text>
                <g id="NATURAL-LOGO">
                    <path d="M71.9847244,53.0785787 C71.9156303,50.745903 71.6536484,48.4124007 71.2429909,46.1121692 C70.4194139,41.5633689 68.993731,37.1472385 67.3003085,32.8505524 C65.5776855,28.4751322 63.6013062,24.187332 61.3952301,20.0330284 C59.2378901,15.9580787 56.8461236,11.9647561 54.0837988,8.26756425 C52.8160453,6.5684803 51.4166841,4.95494983 49.7761103,3.61647175 C48.0608903,2.21062547 46.0629191,1.16249194 43.9325175,0.574156744 C41.9230306,0.0159925791 39.7159263,-0.226408963 37.6681909,0.266246857 C35.5488937,0.78204758 34.0265613,2.19140693 32.7191199,3.87333886 C29.9966888,7.37503888 27.5598877,11.1389789 25.3135067,14.968014 C23.0605453,18.8034553 21.0339906,22.7697066 19.2284958,26.8409366 C17.4086064,30.950397 15.8291069,35.1654561 14.4908199,39.460489 C14.2670866,40.1788077 14.0517844,40.9041524 13.8375104,41.6294972 C12.883765,44.4585485 12.0632725,47.3330629 11.3908388,50.242708 C10.9374087,52.204652 10.5127679,54.2017266 10.3038405,56.2138867 C9.77740917,59.2832729 9.77638099,62.5130203 11.6028508,65.1292211 C13.8613643,68.3750873 17.9870639,69.5534109 21.7199963,69.8778529 C26.6246496,70.3101666 31.5245733,69.4575249 36.4327224,69.4380997 C41.0389962,69.4203277 45.6277907,69.8797127 50.2389997,69.9007911 C58.0548591,69.9365417 69.0788648,68.4895719 71.4183995,59.4547932 C71.9565521,57.3767115 72.0418915,55.210803 71.9847244,53.0785787" id="Fill-1" fill="#F8BFC6"></path>
                    <g id="Group-5" transform="translate(0.000000, 8.000000)">
                        <mask id="mask-2" fill="white">
                            <use xlink:href="#path-1"></use>
                        </mask>
                        <g id="Clip-4"></g>
                        <path d="M1.5859415,1.02490366 L40.9998565,68.5132653 L80.4135665,1.02490366 L1.5859415,1.02490366 Z M40.9998565,70.3238501 L6.15e-05,0.119611275 L82.0000615,0.119611275 L40.9998565,70.3238501 Z" id="Fill-3" fill="#424151" mask="url(#mask-2)"></path>
                    </g>
                    <polygon id="Fill-6" fill="#424151" points="41.3415835 71 36 62.1653261 36.3035014 62.0035217 41.350124 70.3510217 46.7010813 62 47 62.1690435"></polygon>
                    <polygon id="Fill-8" fill="#424151" points="69.6945156 21 69.3894299 20.8370393 74.4025666 12.3336719 64 12.3461921 64 12.0133151 75 12"></polygon>
                    <polygon id="Fill-10" fill="#424151" points="12.3057006 21 7 12 18 12.0133151 17.9995824 12.3461921 7.59741073 12.3336719 12.6107747 20.8370393"></polygon>
                    <path d="M27,30 L27,21 L28.3142305,21 L31.3024254,25.5533482 C31.9942048,26.6082963 32.5335909,27.5563408 32.9763898,28.4776594 L33.0040781,28.4644 C32.8933247,27.262563 32.8656364,26.1676297 32.8656364,24.765452 L32.8656364,21 L34,21 L34,30 L32.7825714,30 L29.8220648,25.4331852 C29.1719253,24.431689 28.5494741,23.4034668 28.0789869,22.4286964 L28.0375617,22.4421629 C28.1066753,23.5770816 28.1343636,24.6587556 28.1343636,26.1543703 L28.1343636,30 L27,30 Z" id="Fill-12" fill="#424151"></path>
                    <path d="M39.4042694,26.2611528 L38.4680898,23.6706643 C38.2552817,23.0831223 38.1135563,22.5490309 37.9716109,22.0281985 L37.9432218,22.0281985 C37.8014965,22.5622899 37.6454665,23.1098476 37.4610475,23.6574053 L36.524868,26.2611528 L39.4042694,26.2611528 Z M36.2695863,27.1691911 L35.2766285,30 L34,30 L37.2482394,21 L38.7376761,21 L42,30 L40.6808979,30 L39.6595511,27.1691911 L36.2695863,27.1691911 Z" id="Fill-14" fill="#424151"></path>
                    <polygon id="Fill-16" fill="#424151" points="43.8757851 21.9882142 41 21.9882142 41 21 48 21 48 21.9882142 45.1102854 21.9882142 45.1102854 30 43.8757851 30"></polygon>
                    <path d="M50.2394718,21 L50.2394718,26.2424236 C50.2394718,28.2262967 51.1830612,29.0671801 52.4507227,29.0671801 C53.859114,29.0671801 54.7605282,28.2 54.7605282,26.2424236 L54.7605282,21 L56,21 L56,26.1635334 C56,28.8833069 54.4648644,30 52.4085474,30 C50.4647707,30 49,28.9621971 49,26.2161268 L49,21 L50.2394718,21 Z" id="Fill-18" fill="#424151"></path>
                    <path d="M32.1891282,39.7274865 L33.40553,39.7274865 C34.676667,39.7274865 35.4828365,38.9763261 35.4828365,37.8422887 C35.4828365,36.5611002 34.6219317,36.0012769 33.3645255,35.9866834 C32.7904637,35.9866834 32.3804194,36.0454628 32.1891282,36.1044449 L32.1891282,39.7274865 Z M31,35.2061333 C31.6013355,35.0735756 32.4624283,35 33.2825167,35 C34.5536537,35 35.373554,35.2503192 35.9476159,35.8099398 C36.4123954,36.2517989 36.6719646,36.9291809 36.6719646,37.6951375 C36.6719646,39.0059185 35.9066115,39.8748404 34.9362362,40.2283276 L34.9362362,40.2723108 C35.6470422,40.537629 36.0706292,41.2444008 36.2893821,42.2754728 C36.5899558,43.6598293 36.8087087,44.6171231 37,45 L35.7700555,45 C35.6195806,44.7202911 35.4145585,43.8659627 35.1549892,42.6287573 C34.881501,41.259197 34.3894479,40.7437623 33.3097903,40.6995764 L32.1891282,40.6995764 L32.1891282,45 L31,45 L31,35.2061333 Z" id="Fill-20" fill="#424151"></path>
                    <path d="M44.0797931,40.8457549 L43.0265245,37.967493 C42.7871453,37.3144934 42.6277055,36.7211173 42.4680462,36.1424429 L42.4362021,36.1424429 C42.2765428,36.7360232 42.1010712,37.3443051 41.893536,37.9525871 L40.8404871,40.8457549 L44.0797931,40.8457549 Z M40.553232,41.8546576 L39.4360557,45 L38,45 L41.6541568,35 L43.3298114,35 L47,45 L45.5160684,45 L44.3670481,41.8546576 L40.553232,41.8546576 Z" id="Fill-22" fill="#424151"></path>
                    <polygon id="Fill-24" fill="#424151" points="48 35 49.1600426 35 49.1600426 43.9169764 53 43.9169764 53 45 48 45"></polygon>
                    <path d="M40.994528,58 C39.6631787,58 39.6701273,60 41.0056457,60 C42.3367634,60 42.3298148,58 40.994528,58" id="Fill-26" fill="#424151"></path>
                    <polygon id="Fill-28" fill="#424151" points="35.8416667 51.5934864 34.4591667 51.5934864 34.4591667 52.6750234 36 52.6750234 36 53 34 53 34 50 35.9208333 50 35.9208333 50.3249766 34.4591667 50.3249766 34.4591667 51.2729616 35.8416667 51.2729616"></polygon>
                    <path d="M35.1078571,52.4992427 C35.2990582,52.6028476 35.578506,52.6891851 35.8726616,52.6891851 C36.3087344,52.6891851 36.5636692,52.486292 36.5636692,52.1927446 C36.5636692,51.9207816 36.3871758,51.7656013 35.9410399,51.6142836 C35.4020126,51.4461527 35.0686363,51.2000909 35.0686363,50.7899879 C35.0686363,50.3367161 35.4951619,50 36.1374016,50 C36.4754225,50 36.7205522,50.06907 36.86763,50.1424568 L36.7499677,50.4489549 C36.6421107,50.3971524 36.421494,50.3108149 36.1224358,50.3108149 C35.6716553,50.3108149 35.5000645,50.548243 35.5000645,50.7468191 C35.5000645,51.0187822 35.7010708,51.1526053 36.156754,51.3080127 C36.7156496,51.4979552 37,51.735156 37,52.1625265 C37,52.6114814 36.6225003,53 35.843246,53 C35.5245775,53 35.1764934,52.9179794 35,52.8143744 L35.1078571,52.4992427 Z" id="Fill-30" fill="#424151"></path>
                    <polygon id="Fill-32" fill="#424151" points="37.82173 50.3294283 37 50.3294283 37 50 39 50 39 50.3294283 38.1744726 50.3294283 38.1744726 53 37.82173 53"></polygon>
                    <path d="M39,52.5 C39,52.2063492 39.210084,52 39.5042017,52 C39.7983193,52 40,52.2063492 40,52.5 C40,52.7857143 39.8067227,53 39.4957983,53 C39.2016807,53 39,52.7857143 39,52.5" id="Fill-34" fill="#424151"></path>
                    <path d="M40,53 L40,52.7548778 L40.3325723,52.4507446 C41.1324201,51.733774 41.4939117,51.3524727 41.4987316,50.9076212 C41.4987316,50.6082663 41.3444952,50.331369 40.876966,50.331369 C40.5928463,50.331369 40.3566717,50.467548 40.2120751,50.5810305 L40.0771182,50.2995939 C40.2940132,50.1271004 40.602486,50 40.963724,50 C41.6385084,50 41.9228818,50.4357729 41.9228818,50.8576889 C41.9228818,51.402405 41.5035515,51.8427172 40.8432268,52.441666 L40.5928463,52.6595524 L40.5928463,52.668631 L42,52.668631 L42,53 L40,53 Z" id="Fill-36" fill="#424151"></path>
                    <path d="M42.3991406,51.513395 C42.3991406,52.2679774 42.6349964,52.696381 42.9978515,52.696381 C43.4058248,52.696381 43.6008594,52.2277926 43.6008594,51.486605 C43.6008594,50.7724424 43.4148962,50.303619 43.0023872,50.303619 C42.6531392,50.303619 42.3991406,50.7233276 42.3991406,51.513395 M44,51.4687451 C44,52.4555068 43.6280735,53 42.9751731,53 C42.3991406,53 42.0090714,52.4686668 42,51.50893 C42,50.5357982 42.4263547,50 43.0250656,50 C43.6462163,50 44,50.5447282 44,51.4687451" id="Fill-38" fill="#424151"></path>
                    <polygon id="Fill-40" fill="#424151" points="45.6082949 51.2523281 45.5990783 51.2523281 45.078341 51.4400356 45 51.2338651 45.6543779 51 46 51 46 53 45.6082949 53"></polygon>
                    <path d="M47.9356352,50.3359083 L46.708013,50.3359083 L46.5842345,51.0939715 C46.6585016,51.0848929 46.7278176,51.0755754 46.846645,51.0755754 C47.094202,51.0755754 47.3414984,51.1255077 47.539544,51.2344509 C47.7920521,51.3660906 48,51.6202915 48,51.9925141 C48,52.5690053 47.4999349,53 46.8020847,53 C46.4505537,53 46.1534853,52.909214 46,52.818428 L46.1089251,52.5145337 C46.2426059,52.5871625 46.5050163,52.6777096 46.7971336,52.6777096 C47.2078176,52.6777096 47.5593485,52.4328263 47.5593485,52.0379071 C47.5543974,51.6566059 47.2771336,51.3842478 46.6337459,51.3842478 C46.4505537,51.3842478 46.3069707,51.402405 46.1881433,51.4160229 L46.3960912,50 L47.9356352,50 L47.9356352,50.3359083 Z" id="Fill-42" fill="#424151"></path>
                </g>
            </g>
        </g>
    </g>
</svg>