<svg id="Layer_1" data-name="Layer 1" xmlns="http://www.w3.org/2000/svg" viewBox="0 0 48.51 45.34"><defs><style>.cls-1{fill:#f9c0c7;}.cls-2,.cls-4,.cls-5,.cls-6,.cls-8,.cls-9{fill:#424251;}.cls-3,.cls-4,.cls-5,.cls-6,.cls-8,.cls-9{isolation:isolate;}.cls-4,.cls-5{font-size:7.87px;}.cls-4,.cls-5,.cls-6{font-family:Arial-BoldMT, Arial;font-weight:700;}.cls-5{letter-spacing:-0.12em;}.cls-6{font-size:8.87px;}.cls-7{letter-spacing:-0.02em;}.cls-8,.cls-9{font-size:2.32px;font-family:ArialMT, Arial;}.cls-9{letter-spacing:-0.08em;}</style></defs><path class="cls-1" d="M43,32.2a27,27,0,0,0-.44-4.11,41.33,41.33,0,0,0-2.34-7.84,71.07,71.07,0,0,0-3.51-7.57,53.8,53.8,0,0,0-4.34-6.95A15.05,15.05,0,0,0,29.86,3a9.36,9.36,0,0,0-3.47-1.8A7.45,7.45,0,0,0,22.67,1a5.43,5.43,0,0,0-2.94,2.13,61.53,61.53,0,0,0-4.4,6.56A69.36,69.36,0,0,0,8.91,24.16l-.39,1.28a52.73,52.73,0,0,0-1.45,5.09,30,30,0,0,0-.65,3.53,7,7,0,0,0,.77,5.27c1.35,1.91,3.79,2.61,6,2.8,2.91.26,5.82-.24,8.74-.26,2.73,0,5.45.26,8.19.28,4.64,0,11.19-.84,12.58-6.17A14.16,14.16,0,0,0,43,32.2Z"/><path class="cls-2" d="M24.62,44.26,1.77,4.67H47.48ZM2.65,5.18l22,38.06,22-38.06Z"/><polygon class="cls-2" points="40.81 11.84 40.65 11.75 43.39 6.86 37.7 6.87 37.7 6.68 43.72 6.67 40.81 11.84"/><polygon class="cls-2" points="13.6 20.39 8.44 11.19 19.14 11.21 19.14 11.55 9.02 11.53 13.9 20.22 13.6 20.39"/><g class="cls-3"><text class="cls-4" transform="translate(15.79 15.04)">N</text><text class="cls-5" transform="translate(20.97 15.04)">A</text><text class="cls-4" transform="translate(25.18 15.04)">TU</text></g><g class="cls-3"><text class="cls-6" transform="translate(17.98 23.94)">R</text><text class="cls-6" transform="translate(22.8 23.94)">A<tspan class="cls-7" x="6.41" y="0">L</tspan></text></g><path class="cls-2" d="M24.64,32a.55.55,0,0,0,0,1.09A.55.55,0,0,0,24.64,32Z"/><g class="cls-3"><text class="cls-8" transform="translate(20.01 29.02)">ES</text><text class="cls-9" transform="translate(22.29 29.02)">T</text><text class="cls-8" transform="translate(23.31 29.02)">. 2015</text></g></svg>