<svg id="Layer_1" data-name="Layer 1" xmlns="http://www.w3.org/2000/svg" viewBox="0 0 8.67 8.23"><defs><style>.cls-1{fill:#f9c0c7;}.cls-2,.cls-4,.cls-5,.cls-6,.cls-8,.cls-9{fill:#424251;}.cls-3,.cls-4,.cls-5,.cls-6,.cls-8,.cls-9{isolation:isolate;}.cls-4,.cls-5{font-size:1.49px;}.cls-4,.cls-5,.cls-6{font-family:Arial-BoldMT, Arial;font-weight:700;}.cls-5{letter-spacing:-0.12em;}.cls-6{font-size:1.68px;}.cls-7{letter-spacing:-0.02em;}.cls-8,.cls-9{font-size:0.44px;font-family:ArialMT, Arial;}.cls-9{letter-spacing:-0.08em;}</style></defs><path class="cls-1" d="M9.59,6.79A5.16,5.16,0,0,0,9.51,6a7.63,7.63,0,0,0-.44-1.48A14.51,14.51,0,0,0,8.4,3.09a10,10,0,0,0-.82-1.32,2.68,2.68,0,0,0-.49-.52A1.76,1.76,0,0,0,6.44.91a1.43,1.43,0,0,0-.71,0,1,1,0,0,0-.56.4,12.75,12.75,0,0,0-.83,1.24A13.25,13.25,0,0,0,3.12,5.27c0,.08-.05.16-.07.24-.11.32-.2.64-.28,1s-.09.45-.12.67a1.29,1.29,0,0,0,.15,1,1.44,1.44,0,0,0,1.13.53c.56.05,1.11,0,1.66,0s1,0,1.56,0c.87,0,2.12-.16,2.38-1.17A2.51,2.51,0,0,0,9.59,6.79Z" transform="translate(-1.77 -0.85)"/><path class="cls-2" d="M6.1,9.08,1.77,1.57h8.66ZM1.93,1.67,6.1,8.88l4.17-7.21Z" transform="translate(-1.77 -0.85)"/><g class="cls-3"><text class="cls-4" transform="translate(2.66 2.69)">N</text><text class="cls-5" transform="translate(3.64 2.69)">A</text><text class="cls-4" transform="translate(4.44 2.69)">TU</text></g><g class="cls-3"><text class="cls-6" transform="translate(3.07 4.38)">R</text><text class="cls-6" transform="translate(3.99 4.38)">A<tspan class="cls-7" x="1.21" y="0">L</tspan></text></g><path class="cls-2" d="M6.1,6.76a.1.1,0,0,0,0,.2A.1.1,0,1,0,6.1,6.76Z" transform="translate(-1.77 -0.85)"/><g class="cls-3"><text class="cls-8" transform="translate(3.46 5.34)">ES</text><text class="cls-9" transform="translate(4.08 5.34)">T</text><text class="cls-8" transform="translate(4.27 5.34)">. 2015</text></g></svg>